<svg aria-hidden="true" style="position: absolute; width: 0; height: 0; overflow: hidden;" version="1.1" xmlns="http://www.w3.org/2000/svg" xmlns:xlink="http://www.w3.org/1999/xlink">
<defs>
<symbol id="icon-user" viewBox="0 0 14 14">
<path d="M7.875 9.661v-0.722c0.964-0.543 1.75-1.897 1.75-3.252 0-2.175 0-3.938-2.625-3.938s-2.625 1.763-2.625 3.938c0 1.354 0.786 2.708 1.75 3.252v0.722c-2.968 0.243-5.25 1.701-5.25 3.464h12.25c0-1.763-2.282-3.222-5.25-3.464z"></path>
</symbol>
<symbol id="icon-search" viewBox="0 0 14 14">
<path d="M13.566 11.914l-3.316-2.82c-0.343-0.309-0.709-0.45-1.006-0.436 0.783-0.917 1.256-2.107 1.256-3.407 0-2.9-2.35-5.25-5.25-5.25s-5.25 2.35-5.25 5.25 2.35 5.25 5.25 5.25c1.3 0 2.49-0.473 3.407-1.256-0.014 0.296 0.128 0.663 0.436 1.006l2.82 3.316c0.483 0.537 1.272 0.582 1.753 0.101s0.436-1.27-0.101-1.753zM5.25 8.75c-1.933 0-3.5-1.567-3.5-3.5s1.567-3.5 3.5-3.5 3.5 1.567 3.5 3.5-1.567 3.5-3.5 3.5z"></path>
</symbol>
</defs>
</svg>
